<svg width="24" height="23" viewBox="0 0 24 23" fill="none" xmlns="http://www.w3.org/2000/svg">
<path d="M9.99994 20H13.9999C13.9999 21.1 13.0999 22 11.9999 22C10.8999 22 9.99994 21.1 9.99994 20ZM20.9999 18V19H2.99994V18L4.99994 16V10C4.99994 6.9 6.99994 4.2 9.99994 3.3V3C9.99994 1.9 10.8999 1 11.9999 1C13.0999 1 13.9999 1.9 13.9999 3V3.3C16.9999 4.2 18.9999 6.9 18.9999 10V16L20.9999 18ZM16.9999 10C16.9999 7.2 14.7999 5 11.9999 5C9.19994 5 6.99994 7.2 6.99994 10V17H16.9999V10Z" fill="#F1F1F1"/>
</svg>
