<svg width="19" height="20" viewBox="0 0 19 20" fill="none" xmlns="http://www.w3.org/2000/svg">
<path fill-rule="evenodd" clip-rule="evenodd" d="M18.7071 2.20711C19.0976 1.81658 19.0976 1.18342 18.7071 0.792893C18.3166 0.402369 17.6834 0.402369 17.2929 0.792893L9.5 8.58579L1.70711 0.792894C1.31659 0.40237 0.68342 0.40237 0.292896 0.792894C-0.0976285 1.18342 -0.0976281 1.81658 0.292896 2.20711L8.08579 10L0.292893 17.7929C-0.0976308 18.1834 -0.0976312 18.8166 0.292893 19.2071C0.683417 19.5976 1.31658 19.5976 1.70711 19.2071L9.5 11.4142L17.2929 19.2071C17.6834 19.5976 18.3166 19.5976 18.7071 19.2071C19.0976 18.8166 19.0976 18.1834 18.7071 17.7929L10.9142 10L18.7071 2.20711Z" fill="#4C77DB"/>
</svg>
