<svg width="157" height="28" viewBox="0 0 157 28" fill="none" xmlns="http://www.w3.org/2000/svg">
<path d="M23.8333 1.91815H4.443C1.9892 1.91815 0 3.90963 0 6.36624V21.5761C0 24.0327 1.9892 26.0242 4.443 26.0242H23.8333C26.2871 26.0242 28.2763 24.0327 28.2763 21.5761V6.36624C28.2763 3.90963 26.2871 1.91815 23.8333 1.91815Z" fill="white"/>
<path d="M6.22672 7.61243C7.45566 7.61243 8.45191 6.63688 8.45191 5.43347C8.45191 4.23007 7.45566 3.25452 6.22672 3.25452C4.99778 3.25452 4.00153 4.23007 4.00153 5.43347C4.00153 6.63688 4.99778 7.61243 6.22672 7.61243Z" fill="#31508C"/>
<path d="M7.19385 1.27217C7.19385 0.736596 6.76018 0.302429 6.22522 0.302429C5.69026 0.302429 5.25659 0.736596 5.25659 1.27217V5.30634C5.25659 5.84191 5.69026 6.27608 6.22522 6.27608C6.76018 6.27608 7.19385 5.84191 7.19385 5.30634V1.27217Z" fill="#C6C6C6"/>
<path d="M22.0511 7.61243C23.28 7.61243 24.2762 6.63688 24.2762 5.43347C24.2762 4.23007 23.28 3.25452 22.0511 3.25452C20.8221 3.25452 19.8259 4.23007 19.8259 5.43347C19.8259 6.63688 20.8221 7.61243 22.0511 7.61243Z" fill="#31508C"/>
<path d="M23.0197 1.27217C23.0197 0.736596 22.586 0.302429 22.0511 0.302429C21.5161 0.302429 21.0825 0.736596 21.0825 1.27217V5.30634C21.0825 5.84191 21.5161 6.27608 22.0511 6.27608C22.586 6.27608 23.0197 5.84191 23.0197 5.30634V1.27217Z" fill="#C6C6C6"/>
<path d="M22.4557 9.49872H5.82063C4.38945 9.49872 3.22925 10.6602 3.22925 12.0931V20.5561C3.22925 21.9889 4.38945 23.1505 5.82063 23.1505H22.4557C23.8868 23.1505 25.047 21.9889 25.047 20.5561V12.0931C25.047 10.6602 23.8868 9.49872 22.4557 9.49872Z" fill="#5A91FF"/>
<path d="M6.20749 13.3792C6.84194 13.3792 7.35626 12.8642 7.35626 12.2291C7.35626 11.5939 6.84194 11.079 6.20749 11.079C5.57304 11.079 5.05872 11.5939 5.05872 12.2291C5.05872 12.8642 5.57304 13.3792 6.20749 13.3792Z" fill="#CCCCCC"/>
<path d="M14.1736 13.3792C14.808 13.3792 15.3223 12.8642 15.3223 12.2291C15.3223 11.5939 14.808 11.079 14.1736 11.079C13.5391 11.079 13.0248 11.5939 13.0248 12.2291C13.0248 12.8642 13.5391 13.3792 14.1736 13.3792Z" fill="#CCCCCC"/>
<path d="M18.1219 13.3792C18.7564 13.3792 19.2707 12.8642 19.2707 12.2291C19.2707 11.5939 18.7564 11.079 18.1219 11.079C17.4875 11.079 16.9731 11.5939 16.9731 12.2291C16.9731 12.8642 17.4875 13.3792 18.1219 13.3792Z" fill="#CCCCCC"/>
<path d="M10.1559 13.3792C10.7903 13.3792 11.3046 12.8642 11.3046 12.2291C11.3046 11.5939 10.7903 11.079 10.1559 11.079C9.5214 11.079 9.00708 11.5939 9.00708 12.2291C9.00708 12.8642 9.5214 13.3792 10.1559 13.3792Z" fill="#CCCCCC"/>
<path d="M22.0688 13.3792C22.7033 13.3792 23.2176 12.8642 23.2176 12.2291C23.2176 11.5939 22.7033 11.079 22.0688 11.079C21.4344 11.079 20.92 11.5939 20.92 12.2291C20.92 12.8642 21.4344 13.3792 22.0688 13.3792Z" fill="#CCCCCC"/>
<path d="M6.20749 17.403C6.84194 17.403 7.35626 16.888 7.35626 16.2529C7.35626 15.6177 6.84194 15.1028 6.20749 15.1028C5.57304 15.1028 5.05872 15.6177 5.05872 16.2529C5.05872 16.888 5.57304 17.403 6.20749 17.403Z" fill="#CCCCCC"/>
<path d="M14.1736 17.403C14.808 17.403 15.3223 16.888 15.3223 16.2529C15.3223 15.6177 14.808 15.1028 14.1736 15.1028C13.5391 15.1028 13.0248 15.6177 13.0248 16.2529C13.0248 16.888 13.5391 17.403 14.1736 17.403Z" fill="#CCCCCC"/>
<path d="M18.1219 17.403C18.7564 17.403 19.2707 16.888 19.2707 16.2529C19.2707 15.6177 18.7564 15.1028 18.1219 15.1028C17.4875 15.1028 16.9731 15.6177 16.9731 16.2529C16.9731 16.888 17.4875 17.403 18.1219 17.403Z" fill="#CCCCCC"/>
<path d="M10.1559 17.403C10.7903 17.403 11.3046 16.888 11.3046 16.2529C11.3046 15.6177 10.7903 15.1028 10.1559 15.1028C9.5214 15.1028 9.00708 15.6177 9.00708 16.2529C9.00708 16.888 9.5214 17.403 10.1559 17.403Z" fill="#CCCCCC"/>
<path d="M22.0688 17.403C22.7033 17.403 23.2176 16.888 23.2176 16.2529C23.2176 15.6177 22.7033 15.1028 22.0688 15.1028C21.4344 15.1028 20.92 15.6177 20.92 16.2529C20.92 16.888 21.4344 17.403 22.0688 17.403Z" fill="#CCCCCC"/>
<path d="M6.20749 21.3544C6.84194 21.3544 7.35626 20.8395 7.35626 20.2043C7.35626 19.5691 6.84194 19.0542 6.20749 19.0542C5.57304 19.0542 5.05872 19.5691 5.05872 20.2043C5.05872 20.8395 5.57304 21.3544 6.20749 21.3544Z" fill="#CCCCCC"/>
<path d="M14.1736 21.3544C14.808 21.3544 15.3223 20.8395 15.3223 20.2043C15.3223 19.5691 14.808 19.0542 14.1736 19.0542C13.5391 19.0542 13.0248 19.5691 13.0248 20.2043C13.0248 20.8395 13.5391 21.3544 14.1736 21.3544Z" fill="#CCCCCC"/>
<path d="M18.1219 21.3544C18.7564 21.3544 19.2707 20.8395 19.2707 20.2043C19.2707 19.5691 18.7564 19.0542 18.1219 19.0542C17.4875 19.0542 16.9731 19.5691 16.9731 20.2043C16.9731 20.8395 17.4875 21.3544 18.1219 21.3544Z" fill="#CCCCCC"/>
<path d="M10.1559 21.3544C10.7903 21.3544 11.3046 20.8395 11.3046 20.2043C11.3046 19.5691 10.7903 19.0542 10.1559 19.0542C9.5214 19.0542 9.00708 19.5691 9.00708 20.2043C9.00708 20.8395 9.5214 21.3544 10.1559 21.3544Z" fill="#CCCCCC"/>
<path d="M22.0688 21.3544C22.7033 21.3544 23.2176 20.8395 23.2176 20.2043C23.2176 19.5691 22.7033 19.0542 22.0688 19.0542C21.4344 19.0542 20.92 19.5691 20.92 20.2043C20.92 20.8395 21.4344 21.3544 22.0688 21.3544Z" fill="#CCCCCC"/>
<path d="M37.5698 10.9474L32.7045 22.4039C32.5997 22.6892 32.4372 22.9109 32.2202 23.0691C32.0017 23.2273 31.7654 23.3056 31.51 23.3056C31.1039 23.3056 30.8042 23.1933 30.6093 22.9671C30.4143 22.7409 30.3169 22.463 30.3169 22.1334C30.3169 21.9974 30.339 21.8554 30.3848 21.7047L35.9943 8.21849C36.1139 7.9184 36.2985 7.68484 36.5465 7.51927C36.7946 7.35371 37.0604 7.28571 37.3468 7.31675C37.6171 7.31675 37.8681 7.3951 38.1014 7.55327C38.3347 7.71145 38.503 7.93319 38.6078 8.21849L44.1494 21.4341C44.2247 21.6293 44.2616 21.8096 44.2616 21.9752C44.2616 22.3817 44.1302 22.704 43.8674 22.9449C43.6045 23.1859 43.3151 23.3056 43.0006 23.3056C42.7304 23.3056 42.4853 23.2228 42.2683 23.0573C42.0497 22.8917 41.8814 22.667 41.7618 22.3802L36.9186 11.0819L37.5713 10.9459L37.5698 10.9474ZM33.4029 19.6514L34.6418 17.0585H40.7238L41.152 19.6514H33.4029Z" fill="white"/>
<path d="M50.5001 10.9015C51.1306 10.9015 51.7094 10.9991 52.2351 11.1942C52.7607 11.3894 53.2155 11.6377 53.5979 11.9378C53.9804 12.2394 54.2816 12.5439 54.4986 12.8514C54.7157 13.1603 54.825 13.419 54.825 13.6289L54.2388 13.9216V12.2748C54.2388 11.8846 54.3658 11.5564 54.6212 11.2933C54.8766 11.0302 55.1985 10.8986 55.5898 10.8986C55.9811 10.8986 56.303 11.0272 56.5585 11.2815C56.8139 11.5372 56.9409 11.8683 56.9409 12.2734V22.3093C56.9409 23.6175 56.6589 24.6656 56.0963 25.455C55.5337 26.2444 54.794 26.815 53.877 27.1683C52.9615 27.5216 51.9767 27.6975 50.9253 27.6975C50.6241 27.6975 50.2343 27.6606 49.7544 27.5852C49.2731 27.5098 48.8153 27.4196 48.3797 27.3147C47.9442 27.2097 47.6134 27.1122 47.389 27.022C46.9386 26.8268 46.6271 26.5815 46.4543 26.2888C46.2815 25.9961 46.2476 25.6827 46.3524 25.353C46.4883 24.9169 46.7053 24.6198 47.0051 24.4616C47.3048 24.3035 47.6208 24.2842 47.9515 24.4055C48.1022 24.4498 48.3487 24.5415 48.6943 24.676C49.0398 24.812 49.4192 24.9347 49.8312 25.0485C50.2447 25.1608 50.6079 25.217 50.9239 25.217C52.0505 25.217 52.8833 24.9908 53.4237 24.54C53.9641 24.0891 54.2343 23.4653 54.2343 22.6685V20.7068L54.5046 20.9094C54.5046 21.1045 54.4027 21.341 54.2004 21.6204C53.9981 21.8983 53.719 22.1733 53.3661 22.4438C53.0132 22.7143 52.5968 22.9435 52.1155 23.1312C51.6341 23.3189 51.1247 23.4135 50.5843 23.4135C49.5182 23.4135 48.5569 23.1475 47.7005 22.6123C46.8441 22.0787 46.1693 21.3425 45.6732 20.4023C45.1771 19.4622 44.9305 18.3845 44.9305 17.1664C44.9305 15.9483 45.1785 14.847 45.6732 13.9068C46.1693 12.9682 46.8367 12.2305 47.6784 11.6968C48.5185 11.1632 49.4576 10.8956 50.4942 10.8956L50.5001 10.9015ZM50.9283 13.3821C50.252 13.3821 49.6585 13.5476 49.149 13.8788C48.6381 14.2099 48.2409 14.6608 47.9545 15.2314C47.6695 15.8035 47.5263 16.4495 47.5263 17.1708C47.5263 17.8922 47.6695 18.5161 47.9545 19.0882C48.2395 19.6602 48.6381 20.1111 49.149 20.4408C49.6599 20.7719 50.2535 20.9375 50.9283 20.9375C51.6031 20.9375 52.2203 20.7719 52.7312 20.4408C53.2421 20.1096 53.6393 19.6588 53.9257 19.0882C54.2107 18.5175 54.3539 17.8775 54.3539 17.1708C54.3539 16.4642 54.2107 15.8035 53.9257 15.2314C53.6408 14.6608 53.2421 14.2084 52.7312 13.8788C52.2203 13.5476 51.6193 13.3821 50.9283 13.3821Z" fill="white"/>
<path d="M64.6471 23.418C63.3699 23.418 62.2625 23.1519 61.3249 22.6168C60.3858 22.0831 59.6652 21.3573 59.1617 20.4408C58.6582 19.5242 58.4072 18.4865 58.4072 17.329C58.4072 15.9764 58.6803 14.8219 59.2296 13.8669C59.7774 12.912 60.495 12.1788 61.381 11.6688C62.2669 11.1573 63.206 10.9016 64.1968 10.9016C64.9631 10.9016 65.6867 11.0597 66.3703 11.3746C67.054 11.6909 67.6579 12.1226 68.1835 12.671C68.7092 13.2195 69.1256 13.8551 69.4342 14.5765C69.7413 15.2979 69.8964 16.0651 69.8964 16.8767C69.8816 17.2374 69.7384 17.5301 69.4681 17.7562C69.1979 17.9824 68.8819 18.0948 68.5217 18.0948H59.9162L59.2399 15.8389H67.5073L67.0111 16.2898V15.6808C66.9801 15.2447 66.8266 14.8544 66.549 14.5085C66.2714 14.1626 65.9259 13.8876 65.5124 13.6851C65.099 13.4826 64.6604 13.3806 64.1953 13.3806C63.7302 13.3806 63.3241 13.4412 62.9343 13.5609C62.543 13.6822 62.2064 13.8847 61.9199 14.17C61.6349 14.4553 61.409 14.8396 61.2437 15.3201C61.0783 15.802 60.9956 16.411 60.9956 17.1472C60.9956 17.9588 61.1639 18.6476 61.5021 19.2109C61.8402 19.7741 62.2758 20.2028 62.8088 20.4969C63.3419 20.7896 63.9089 20.9375 64.5098 20.9375C65.065 20.9375 65.508 20.8916 65.8387 20.8015C66.1695 20.7113 66.4353 20.6019 66.639 20.4748C66.8413 20.3476 67.0259 20.2382 67.1913 20.1481C67.4615 20.0121 67.7169 19.9456 67.9576 19.9456C68.2884 19.9456 68.5615 20.0579 68.7801 20.2841C68.9971 20.5102 69.1064 20.7734 69.1064 21.0735C69.1064 21.48 68.8967 21.8481 68.4759 22.1792C68.0846 22.5103 67.5368 22.8001 66.831 23.0469C66.1252 23.2953 65.3972 23.4195 64.6457 23.4195L64.6471 23.418Z" fill="white"/>
<path d="M78.2523 10.9016C79.3641 10.9016 80.2087 11.1351 80.7861 11.6008C81.3634 12.0664 81.7621 12.6873 81.9806 13.4619C82.1977 14.2365 82.3069 15.0969 82.3069 16.0444V21.8185C82.3069 22.2102 82.1785 22.5369 81.9245 22.8001C81.669 23.0632 81.3457 23.1948 80.9559 23.1948C80.5661 23.1948 80.2427 23.0632 79.9872 22.8001C79.7318 22.5369 79.6048 22.2102 79.6048 21.8185V16.0444C79.6048 15.5477 79.5413 15.1013 79.4128 14.7022C79.2844 14.3045 79.0555 13.9837 78.7262 13.7442C78.3955 13.5033 77.923 13.3836 77.3073 13.3836C76.6915 13.3836 76.1998 13.5033 75.7864 13.7442C75.373 13.9852 75.0584 14.3045 74.8399 14.7022C74.6214 15.1013 74.5136 15.5477 74.5136 16.0444V21.8185C74.5136 22.2102 74.3851 22.5369 74.1312 22.8001C73.8757 23.0632 73.5523 23.1948 73.1625 23.1948C72.7727 23.1948 72.4493 23.0632 72.1939 22.8001C71.9385 22.5369 71.8115 22.2102 71.8115 21.8185V12.504C71.8115 12.1137 71.9385 11.7856 72.1939 11.5224C72.4493 11.2593 72.7712 11.1277 73.1625 11.1277C73.5538 11.1277 73.8757 11.2593 74.1312 11.5224C74.3866 11.7856 74.5136 12.1122 74.5136 12.504V13.4737L74.1755 13.4057C74.3113 13.15 74.5062 12.8765 74.7617 12.5823C75.0171 12.2896 75.3168 12.0147 75.6624 11.7589C76.0079 11.5032 76.3977 11.2962 76.8333 11.1381C77.2689 10.9799 77.7414 10.9016 78.2523 10.9016Z" fill="white"/>
<path d="M94.6525 6.5037C95.0423 6.5037 95.3657 6.63231 95.6211 6.88657C95.8766 7.14231 96.0036 7.47344 96.0036 7.87849V21.8155C96.0036 22.2073 95.8751 22.534 95.6211 22.7971C95.3657 23.0602 95.0423 23.1918 94.6525 23.1918C94.2627 23.1918 93.9393 23.0602 93.6839 22.7971C93.4284 22.534 93.3015 22.2073 93.3015 21.8155V20.7113L93.7976 20.9138C93.7976 21.1089 93.6927 21.3454 93.4816 21.6248C93.2719 21.9027 92.9855 22.1777 92.6252 22.4482C92.2649 22.7187 91.8397 22.9479 91.3524 23.1356C90.8636 23.3234 90.335 23.418 89.7651 23.418C88.7285 23.418 87.7894 23.1519 86.9493 22.6167C86.1076 22.0831 85.4432 21.3469 84.9559 20.4067C84.4671 19.4666 84.2235 18.3889 84.2235 17.1708C84.2235 15.9527 84.4671 14.8514 84.9559 13.9113C85.4432 12.9726 86.1002 12.2349 86.9271 11.7013C87.7525 11.1676 88.6695 10.9001 89.675 10.9001C90.3203 10.9001 90.9138 10.9976 91.4543 11.1927C91.9947 11.3879 92.4642 11.6362 92.8629 11.9363C93.2601 12.2379 93.5687 12.5424 93.7858 12.8499C94.0028 13.1588 94.1121 13.4175 94.1121 13.6274L93.3015 13.9201V7.87553C93.3015 7.48527 93.4284 7.15709 93.6839 6.89396C93.9393 6.63083 94.2612 6.49927 94.6525 6.49927V6.5037ZM90.1017 20.9374C90.7618 20.9374 91.3406 20.7719 91.8367 20.4407C92.3328 20.1096 92.7182 19.6587 92.9973 19.0881C93.2749 18.5175 93.4137 17.8774 93.4137 17.1708C93.4137 16.4642 93.2749 15.8034 92.9973 15.2314C92.7197 14.6607 92.3328 14.2084 91.8367 13.8787C91.3406 13.5476 90.7632 13.3821 90.1017 13.3821C89.4402 13.3821 88.885 13.5476 88.3904 13.8787C87.8943 14.2099 87.5074 14.6607 87.2298 15.2314C86.9522 15.8034 86.8134 16.4494 86.8134 17.1708C86.8134 17.8922 86.9522 18.5161 87.2298 19.0881C87.5074 19.6602 87.8943 20.1111 88.3904 20.4407C88.8865 20.7719 89.4565 20.9374 90.1017 20.9374Z" fill="white"/>
<path d="M108.348 10.9015C108.738 10.9015 109.061 11.0301 109.316 11.2844C109.572 11.5401 109.699 11.8713 109.699 12.2763V21.8155C109.699 22.2073 109.57 22.534 109.316 22.7971C109.061 23.0602 108.738 23.1918 108.348 23.1918C107.958 23.1918 107.635 23.0602 107.379 22.7971C107.124 22.534 106.997 22.2073 106.997 21.8155V20.7113L107.493 20.9138C107.493 21.1089 107.388 21.3454 107.177 21.6248C106.967 21.9027 106.681 22.1777 106.32 22.4482C105.96 22.7187 105.535 22.9479 105.048 23.1356C104.559 23.3234 104.03 23.418 103.46 23.418C102.424 23.418 101.485 23.1519 100.644 22.6167C99.8028 22.0831 99.1383 21.3469 98.6511 20.4067C98.1623 19.4666 97.9187 18.3889 97.9187 17.1708C97.9187 15.9527 98.1623 14.8514 98.6511 13.9113C99.1383 12.9726 99.7954 12.2349 100.622 11.7013C101.448 11.1676 102.365 10.9001 103.37 10.9001C104.015 10.9001 104.609 10.9976 105.149 11.1927C105.69 11.3879 106.159 11.6362 106.558 11.9363C106.955 12.2379 107.264 12.5424 107.481 12.8499C107.698 13.1588 107.807 13.4175 107.807 13.6274L106.997 13.9201V12.2734C106.997 11.8831 107.124 11.5549 107.379 11.2918C107.635 11.0287 107.956 10.8971 108.348 10.8971V10.9015ZM103.797 20.9374C104.457 20.9374 105.036 20.7719 105.532 20.4407C106.028 20.1096 106.413 19.6587 106.692 19.0881C106.97 18.5175 107.109 17.8774 107.109 17.1708C107.109 16.4642 106.97 15.8034 106.692 15.2314C106.415 14.6607 106.028 14.2084 105.532 13.8787C105.036 13.5476 104.458 13.3821 103.797 13.3821C103.135 13.3821 102.58 13.5476 102.086 13.8787C101.589 14.2099 101.203 14.6607 100.925 15.2314C100.647 15.8034 100.509 16.4494 100.509 17.1708C100.509 17.8922 100.647 18.5161 100.925 19.0881C101.203 19.6602 101.589 20.1111 102.086 20.4407C102.582 20.7719 103.152 20.9374 103.797 20.9374Z" fill="white"/>
<path d="M113.821 23.1933C113.401 23.1933 113.059 23.0617 112.797 22.7986C112.534 22.5355 112.402 22.2088 112.402 21.817V8.78172C112.402 8.39146 112.534 8.06328 112.797 7.80015C113.059 7.53702 113.386 7.40546 113.777 7.40546H121.098C121.488 7.40546 121.815 7.52963 122.078 7.77798C122.341 8.02633 122.473 8.34563 122.473 8.73589C122.473 9.06702 122.341 9.35972 122.078 9.61546C121.815 9.8712 121.489 9.99833 121.098 9.99833H115.016L115.218 9.72781V14.2616L115.06 13.9689H120.083C120.473 13.9689 120.801 14.0931 121.064 14.3415C121.327 14.5898 121.458 14.9091 121.458 15.2994C121.458 15.6305 121.327 15.9232 121.064 16.1789C120.801 16.4347 120.475 16.5618 120.083 16.5618H115.014L115.217 16.3593V21.817C115.217 22.2088 115.078 22.5355 114.8 22.7986C114.523 23.0617 114.196 23.1933 113.82 23.1933H113.821Z" fill="white"/>
<path d="M133.802 10.9016C134.192 10.9016 134.515 11.0302 134.771 11.2844C135.026 11.5402 135.153 11.8713 135.153 12.2763V21.8156C135.153 22.2073 135.025 22.534 134.771 22.7971C134.515 23.0603 134.192 23.1918 133.802 23.1918C133.412 23.1918 133.089 23.0603 132.834 22.7971C132.578 22.534 132.451 22.2073 132.451 21.8156V20.7113L132.947 20.9138C132.947 21.1089 132.842 21.3455 132.631 21.6249C132.422 21.9028 132.135 22.1777 131.775 22.4483C131.415 22.7188 130.989 22.9479 130.502 23.1356C130.013 23.3234 129.485 23.418 128.915 23.418C127.878 23.418 126.939 23.1519 126.099 22.6168C125.257 22.0831 124.593 21.3469 124.106 20.4068C123.617 19.4666 123.373 18.3889 123.373 17.1709C123.373 15.9528 123.617 14.8515 124.106 13.9113C124.593 12.9726 125.25 12.235 126.077 11.7013C126.902 11.1676 127.819 10.9001 128.825 10.9001C129.47 10.9001 130.064 10.9976 130.604 11.1928C131.144 11.3879 131.614 11.6363 132.013 11.9363C132.41 12.2379 132.718 12.5424 132.935 12.8499C133.153 13.1589 133.262 13.4176 133.262 13.6275L132.451 13.9202V12.2734C132.451 11.8831 132.578 11.5549 132.834 11.2918C133.089 11.0287 133.411 10.8971 133.802 10.8971V10.9016ZM129.253 20.9375C129.913 20.9375 130.492 20.7719 130.988 20.4408C131.484 20.1096 131.869 19.6588 132.148 19.0882C132.426 18.5176 132.565 17.8775 132.565 17.1709C132.565 16.4643 132.426 15.8035 132.148 15.2314C131.871 14.6608 131.484 14.2084 130.988 13.8788C130.492 13.5476 129.914 13.3821 129.253 13.3821C128.591 13.3821 128.036 13.5476 127.542 13.8788C127.045 14.2099 126.659 14.6608 126.381 15.2314C126.103 15.8035 125.965 16.4495 125.965 17.1709C125.965 17.8923 126.103 18.5161 126.381 19.0882C126.659 19.6603 127.045 20.1111 127.542 20.4408C128.038 20.7719 128.608 20.9375 129.253 20.9375ZM129.501 10.3605C129.381 10.3605 129.226 10.2969 129.039 10.1683C128.851 10.0412 128.764 9.85643 128.78 9.61547C128.78 9.47947 128.826 9.33756 128.916 9.18678L130.223 6.8866C130.359 6.64565 130.53 6.43573 130.741 6.25539C130.951 6.07504 131.192 5.98486 131.462 5.98486C131.883 5.98486 132.19 6.09425 132.385 6.31156C132.58 6.53034 132.67 6.79643 132.655 7.11278C132.64 7.26356 132.599 7.42173 132.531 7.58582C132.463 7.75138 132.363 7.91695 132.227 8.08252L130.515 9.97765C130.365 10.1432 130.199 10.2482 130.019 10.294C129.839 10.3398 129.666 10.362 129.501 10.362V10.3605Z" fill="white"/>
<path d="M142.994 10.9016C143.85 10.9016 144.597 10.9917 145.235 11.1721C145.873 11.3524 146.369 11.6037 146.722 11.9275C147.075 12.2512 147.251 12.6385 147.251 13.0894C147.251 13.3909 147.161 13.6718 146.981 13.9349C146.801 14.1981 146.538 14.3296 146.192 14.3296C145.951 14.3296 145.754 14.2956 145.596 14.2276C145.438 14.1596 145.299 14.0739 145.179 13.9689C145.058 13.864 144.916 13.7664 144.751 13.6762C144.6 13.5861 144.372 13.5151 144.064 13.4619C143.756 13.4102 143.527 13.3835 143.378 13.3835C142.612 13.3835 141.962 13.5491 141.429 13.8802C140.896 14.2114 140.487 14.6578 140.202 15.2225C139.917 15.7857 139.774 16.4362 139.774 17.1738C139.774 17.9115 139.92 18.5382 140.212 19.1015C140.504 19.6647 140.91 20.1126 141.429 20.4437C141.947 20.7749 142.544 20.9404 143.22 20.9404C143.595 20.9404 143.918 20.9182 144.188 20.8724C144.459 20.8281 144.685 20.7601 144.865 20.6699C145.074 20.5502 145.262 20.4215 145.427 20.287C145.593 20.151 145.841 20.0845 146.172 20.0845C146.561 20.0845 146.863 20.2087 147.072 20.457C147.282 20.7054 147.388 21.0099 147.388 21.3706C147.388 21.7313 147.177 22.089 146.758 22.3965C146.337 22.7055 145.785 22.9523 145.102 23.1401C144.419 23.3278 143.679 23.4224 142.883 23.4224C141.696 23.4224 140.668 23.1489 139.797 22.599C138.926 22.0506 138.254 21.3026 137.782 20.355C137.309 19.4075 137.071 18.3475 137.071 17.1753C137.071 15.9424 137.322 14.8559 137.826 13.9157C138.329 12.977 139.028 12.2394 139.921 11.7057C140.815 11.1721 141.839 10.9045 142.995 10.9045L142.994 10.9016Z" fill="white"/>
<path d="M150.067 9.66127C149.556 9.66127 149.196 9.57848 148.986 9.41292C148.776 9.24735 148.67 8.95466 148.67 8.53335V8.10466C148.67 7.66857 148.787 7.37144 149.02 7.21327C149.253 7.05509 149.609 6.97675 150.09 6.97675C150.616 6.97675 150.984 7.05953 151.195 7.22509C151.404 7.39066 151.511 7.68335 151.511 8.10466V8.53335C151.511 8.96944 151.399 9.26657 151.173 9.42475C150.947 9.58292 150.579 9.66127 150.068 9.66127H150.067ZM151.441 21.817C151.441 22.2087 151.313 22.5354 151.059 22.7986C150.804 23.0617 150.48 23.1933 150.09 23.1933C149.701 23.1933 149.377 23.0617 149.122 22.7986C148.866 22.5354 148.739 22.2087 148.739 21.817V12.5025C148.739 12.1122 148.866 11.784 149.122 11.5209C149.377 11.2578 149.699 11.1262 150.09 11.1262C150.482 11.1262 150.804 11.2578 151.059 11.5209C151.314 11.784 151.441 12.1107 151.441 12.5025V21.817Z" fill="white"/>
<path d="M156.689 21.817C156.689 22.2088 156.558 22.5355 156.295 22.7986C156.032 23.0617 155.706 23.1933 155.314 23.1933C154.923 23.1933 154.623 23.0617 154.368 22.7986C154.112 22.5355 153.985 22.2088 153.985 21.817V7.87998C153.985 7.48972 154.117 7.16155 154.38 6.89842C154.643 6.63529 154.969 6.50372 155.36 6.50372C155.751 6.50372 156.07 6.63529 156.317 6.89842C156.565 7.16155 156.689 7.48825 156.689 7.87998V21.817Z" fill="white"/>
</svg>
