<svg width="20" height="20" viewBox="0 0 20 20" fill="none" xmlns="http://www.w3.org/2000/svg">
<path d="M10.2706 6C11.3315 6 12.3489 6.42143 13.099 7.17157C13.8492 7.92172 14.2706 8.93913 14.2706 10C14.2706 11.0609 13.8492 12.0783 13.099 12.8284C12.3489 13.5786 11.3315 14 10.2706 14C9.20973 14 8.19231 13.5786 7.44216 12.8284C6.69202 12.0783 6.27059 11.0609 6.27059 10C6.27059 8.93913 6.69202 7.92172 7.44216 7.17157C8.19231 6.42143 9.20973 6 10.2706 6ZM10.2706 8C9.74016 8 9.23145 8.21071 8.85638 8.58579C8.48131 8.96086 8.27059 9.46957 8.27059 10C8.27059 10.5304 8.48131 11.0391 8.85638 11.4142C9.23145 11.7893 9.74016 12 10.2706 12C10.801 12 11.3097 11.7893 11.6848 11.4142C12.0599 11.0391 12.2706 10.5304 12.2706 10C12.2706 9.46957 12.0599 8.96086 11.6848 8.58579C11.3097 8.21071 10.801 8 10.2706 8ZM8.27059 20C8.02059 20 7.81059 19.82 7.77059 19.58L7.40059 16.93C6.77059 16.68 6.23059 16.34 5.71059 15.94L3.22059 16.95C3.00059 17.03 2.73059 16.95 2.61059 16.73L0.610591 13.27C0.480591 13.05 0.540591 12.78 0.730591 12.63L2.84059 10.97L2.77059 10L2.84059 9L0.730591 7.37C0.540591 7.22 0.480591 6.95 0.610591 6.73L2.61059 3.27C2.73059 3.05 3.00059 2.96 3.22059 3.05L5.71059 4.05C6.23059 3.66 6.77059 3.32 7.40059 3.07L7.77059 0.42C7.81059 0.18 8.02059 0 8.27059 0H12.2706C12.5206 0 12.7306 0.18 12.7706 0.42L13.1406 3.07C13.7706 3.32 14.3106 3.66 14.8306 4.05L17.3206 3.05C17.5406 2.96 17.8106 3.05 17.9306 3.27L19.9306 6.73C20.0606 6.95 20.0006 7.22 19.8106 7.37L17.7006 9L17.7706 10L17.7006 11L19.8106 12.63C20.0006 12.78 20.0606 13.05 19.9306 13.27L17.9306 16.73C17.8106 16.95 17.5406 17.04 17.3206 16.95L14.8306 15.95C14.3106 16.34 13.7706 16.68 13.1406 16.93L12.7706 19.58C12.7306 19.82 12.5206 20 12.2706 20H8.27059ZM9.52059 2L9.15059 4.61C7.95059 4.86 6.89059 5.5 6.12059 6.39L3.71059 5.35L2.96059 6.65L5.07059 8.2C4.67059 9.37 4.67059 10.64 5.07059 11.8L2.95059 13.36L3.70059 14.66L6.13059 13.62C6.90059 14.5 7.95059 15.14 9.14059 15.38L9.51059 18H11.0306L11.4006 15.39C12.5906 15.14 13.6406 14.5 14.4106 13.62L16.8406 14.66L17.5906 13.36L15.4706 11.81C15.8706 10.64 15.8706 9.37 15.4706 8.2L17.5806 6.65L16.8306 5.35L14.4206 6.39C13.6506 5.5 12.5906 4.86 11.3906 4.62L11.0206 2H9.52059Z" fill="white"/>
</svg>
